<svg id="Layer_1" height="512" viewBox="0 0 512 512" width="512" xmlns="http://www.w3.org/2000/svg" xmlns:xlink="http://www.w3.org/1999/xlink" data-name="Layer 1"><linearGradient id="linear-gradient" gradientUnits="userSpaceOnUse" x1="395.859" x2="395.859" y1="483.682" y2="65.177"><stop offset=".322" stop-color="#a163f5"/><stop offset=".466" stop-color="#b074ee"/><stop offset=".752" stop-color="#d8a1dd"/><stop offset=".898" stop-color="#efbad3"/></linearGradient><linearGradient id="linear-gradient-2" x1="349.569" x2="349.569" xlink:href="#linear-gradient" y1="483.682" y2="65.177"/><linearGradient id="linear-gradient-3" x1="159.006" x2="159.006" xlink:href="#linear-gradient" y1="483.682" y2="65.177"/><linearGradient id="linear-gradient-4" x1="112.767" x2="112.767" xlink:href="#linear-gradient" y1="483.682" y2="65.177"/><linearGradient id="linear-gradient-5" x1="252.563" x2="252.563" xlink:href="#linear-gradient" y1="483.682" y2="65.177"/><linearGradient id="linear-gradient-6" x1="251.243" x2="251.243" xlink:href="#linear-gradient" y1="483.682" y2="65.177"/><linearGradient id="linear-gradient-7" x1="257.065" x2="257.065" xlink:href="#linear-gradient" y1="483.682" y2="65.177"/><linearGradient id="linear-gradient-8" x1="255.263" x2="255.263" xlink:href="#linear-gradient" y1="483.682" y2="65.177"/><linearGradient id="linear-gradient-9" x1="355.434" x2="355.434" xlink:href="#linear-gradient" y1="483.682" y2="65.177"/><linearGradient id="linear-gradient-10" x1="324.323" x2="324.323" xlink:href="#linear-gradient" y1="483.682" y2="65.177"/><linearGradient id="linear-gradient-11" x1="189.388" x2="189.388" xlink:href="#linear-gradient" y1="483.682" y2="65.177"/><linearGradient id="linear-gradient-12" x1="156.226" x2="156.226" xlink:href="#linear-gradient" y1="483.682" y2="65.177"/><linearGradient id="linear-gradient-13" x1="153.219" x2="153.219" xlink:href="#linear-gradient" y1="483.682" y2="65.177"/><linearGradient id="linear-gradient-14" x1="185.443" x2="185.443" xlink:href="#linear-gradient" y1="483.682" y2="65.177"/><linearGradient id="linear-gradient-15" x1="319.153" x2="319.153" xlink:href="#linear-gradient" y1="483.682" y2="65.177"/><linearGradient id="linear-gradient-16" x1="352.759" x2="352.759" xlink:href="#linear-gradient" y1="483.682" y2="65.177"/><linearGradient id="linear-gradient-17" x1="116.361" x2="116.361" xlink:href="#linear-gradient" y1="483.682" y2="65.177"/><linearGradient id="linear-gradient-18" x1="394.886" x2="394.886" xlink:href="#linear-gradient" y1="483.682" y2="65.177"/><linearGradient id="linear-gradient-19" x1="261.149" x2="261.149" xlink:href="#linear-gradient" y1="483.682" y2="65.177"/><linearGradient id="linear-gradient-20" x1="253.307" x2="253.307" xlink:href="#linear-gradient" y1="483.682" y2="65.177"/><linearGradient id="linear-gradient-21" x1="396.561" x2="396.561" xlink:href="#linear-gradient" y1="483.682" y2="65.177"/><linearGradient id="linear-gradient-22" x1="116.235" x2="116.235" xlink:href="#linear-gradient" y1="483.682" y2="65.177"/><linearGradient id="linear-gradient-23" x1="458.388" x2="458.388" xlink:href="#linear-gradient" y1="483.682" y2="65.177"/><linearGradient id="linear-gradient-24" x1="52.934" x2="52.934" xlink:href="#linear-gradient" y1="483.682" y2="65.177"/><linearGradient id="linear-gradient-25" x1="253.883" x2="253.883" xlink:href="#linear-gradient" y1="483.682" y2="65.177"/><linearGradient id="linear-gradient-26" x1="258.441" x2="258.441" xlink:href="#linear-gradient" y1="483.682" y2="65.177"/><linearGradient id="linear-gradient-27" x1="298.608" x2="298.608" xlink:href="#linear-gradient" y1="483.682" y2="65.177"/><linearGradient id="linear-gradient-28" x1="248.371" x2="248.371" xlink:href="#linear-gradient" y1="483.682" y2="65.177"/><linearGradient id="linear-gradient-29" x1="208.926" x2="208.926" xlink:href="#linear-gradient" y1="483.682" y2="65.177"/><path d="m398.788 261.311a5.385 5.385 0 0 0 3.335-10.24c-3.151-1.026-6.383-1.938-9.606-2.711a5.384 5.384 0 1 0 -2.511 10.472c2.947.706 5.902 1.54 8.782 2.479z" fill="url(#linear-gradient)"/><path d="m373.582 256.138a5.385 5.385 0 0 0 .967-10.726 125.073 125.073 0 0 0 -42.17 3.364l-8.633 2.2a5.384 5.384 0 1 0 2.655 10.436l8.634-2.2a114.236 114.236 0 0 1 38.547-3.074z" fill="url(#linear-gradient-2)"/><path d="m182.7 261.577a5.385 5.385 0 0 0 1.484-10.561 141.391 141.391 0 0 0 -49.244-5.16 5.384 5.384 0 1 0 .76 10.744 130.664 130.664 0 0 1 45.505 4.769 5.378 5.378 0 0 0 1.495.208z" fill="url(#linear-gradient-3)"/><path d="m117.168 248.256c-3.661.733-7.336 1.621-10.918 2.639l-.408.116a5.384 5.384 0 1 0 2.937 10.36l.411-.116c3.313-.942 6.708-1.762 10.091-2.439a5.385 5.385 0 0 0 -2.113-10.56z" fill="url(#linear-gradient-4)"/><path d="m256.524 390.8a5.384 5.384 0 0 0 -10.562 2.1c.757 3.8 1.679 7.616 2.744 11.34a5.384 5.384 0 1 0 10.354-2.959c-.984-3.439-1.836-6.966-2.536-10.481z" fill="url(#linear-gradient-5)"/><path d="m255.362 322.2a5.387 5.387 0 0 0 -6.656 3.7 142.2 142.2 0 0 0 -5.224 47.809 5.384 5.384 0 0 0 5.369 5.059c.11 0 .221 0 .331-.01a5.386 5.386 0 0 0 5.049-5.7 131.492 131.492 0 0 1 4.829-44.2 5.383 5.383 0 0 0 -3.698-6.658z" fill="url(#linear-gradient-6)"/><path d="m252.65 190.242a5.379 5.379 0 0 0 6.474-4.009l3.559-15.129a110.622 110.622 0 0 0 2.234-37.942 5.384 5.384 0 1 0 -10.7 1.218 99.885 99.885 0 0 1 -2.018 34.259l-3.558 15.129a5.383 5.383 0 0 0 4.009 6.474z" fill="url(#linear-gradient-7)"/><path d="m250.626 116.893q.431 1.431.817 2.872a5.384 5.384 0 0 0 10.4-2.79q-.428-1.594-.9-3.179c-.605-2.013-1.277-4.038-2-6.018a5.384 5.384 0 1 0 -10.12 3.681c.65 1.789 1.257 3.617 1.803 5.434z" fill="url(#linear-gradient-8)"/><path d="m352.944 362.669.1.151a5.385 5.385 0 1 0 8.961-5.973l-.1-.144c-1.352-2.034-2.764-4.075-4.2-6.067a5.384 5.384 0 0 0 -8.738 6.294c1.362 1.882 2.696 3.811 3.977 5.739z" fill="url(#linear-gradient-9)"/><path d="m337.969 343.1a5.384 5.384 0 1 0 8.1-7.1 195.337 195.337 0 0 0 -38.869-33.957l-5.952 8.975a184.551 184.551 0 0 1 36.721 32.082z" fill="url(#linear-gradient-10)"/><path d="m178.578 161.764a5.384 5.384 0 1 0 -6.694 8.435 75.4 75.4 0 0 1 20.5 25.31l6.339 12.741a5.384 5.384 0 0 0 9.642-4.8l-6.34-12.742a86.224 86.224 0 0 0 -23.447-28.944z" fill="url(#linear-gradient-11)"/><path d="m160.911 150.941a86.151 86.151 0 0 0 -9-3.511 5.385 5.385 0 0 0 -3.343 10.237 75.1 75.1 0 0 1 7.869 3.07c1.1.5 2.208 1.041 3.3 1.607a5.384 5.384 0 0 0 4.945-9.566c-1.245-.646-2.516-1.264-3.771-1.837z" fill="url(#linear-gradient-12)"/><path d="m158.923 343.289a5.385 5.385 0 0 0 -7.369 1.918 105.112 105.112 0 0 0 -5.914 11.693l-.348.807a5.385 5.385 0 1 0 9.9 4.249l.347-.806a94.383 94.383 0 0 1 5.306-10.494 5.383 5.383 0 0 0 -1.922-7.367z" fill="url(#linear-gradient-13)"/><path d="m167.338 337.918a5.37 5.37 0 0 0 4.043-1.826 94.671 94.671 0 0 1 34.245-24.6 5.384 5.384 0 1 0 -4.164-9.931 105.5 105.5 0 0 0 -38.163 27.41 5.385 5.385 0 0 0 4.039 8.943z" fill="url(#linear-gradient-14)"/><path d="m299.278 203.718a5.385 5.385 0 1 0 9.888 4.268l.478-1.109a94.027 94.027 0 0 1 27.788-36.277 5.385 5.385 0 0 0 -6.695-8.436 104.84 104.84 0 0 0 -30.981 40.449z" fill="url(#linear-gradient-15)"/><path d="m348 162.524a5.366 5.366 0 0 0 2.587-.666 94.055 94.055 0 0 1 9.016-4.34 5.385 5.385 0 1 0 -4.147-9.939 105.26 105.26 0 0 0 -10.052 4.84 5.385 5.385 0 0 0 2.6 10.1z" fill="url(#linear-gradient-16)"/><path d="m73.549 125.565a5.387 5.387 0 0 0 4.351 3.665l23.243 3.377 10.394 21.062a5.385 5.385 0 0 0 9.657 0l10.4-21.062 23.242-3.377a5.384 5.384 0 0 0 2.984-9.184l-16.818-16.4 3.97-23.148a5.384 5.384 0 0 0 -7.812-5.676l-20.79 10.929-20.797-10.924a5.385 5.385 0 0 0 -7.813 5.673l3.97 23.148-16.818 16.4a5.383 5.383 0 0 0 -1.363 5.517zm27.725-16.178a5.386 5.386 0 0 0 1.549-4.766l-2.6-15.185 13.637 7.169a5.382 5.382 0 0 0 5.011 0l13.638-7.169-2.6 15.185a5.386 5.386 0 0 0 1.549 4.766l11.033 10.755-15.247 2.215a5.388 5.388 0 0 0 -4.055 2.946l-6.819 13.816-6.827-13.819a5.385 5.385 0 0 0 -4.055-2.946l-15.247-2.215z" fill="url(#linear-gradient-17)"/><path d="m437.377 380.8a5.383 5.383 0 0 0 -4.657-3.261l-23.452-1.282-12.239-20.045a5.384 5.384 0 0 0 -9.618.865l-8.466 21.908-22.845 5.448a5.384 5.384 0 0 0 -2.149 9.415l18.22 14.821-1.881 23.411a5.383 5.383 0 0 0 8.289 4.953l19.721-12.747 21.685 9.023a5.385 5.385 0 0 0 7.273-6.353l-6.028-22.7 15.282-17.835a5.382 5.382 0 0 0 .865-5.621zm-26.164 18.6a5.385 5.385 0 0 0 -1.115 4.886l3.954 14.891-14.225-5.919a5.38 5.38 0 0 0 -4.991.449l-12.94 8.362 1.234-15.358a5.384 5.384 0 0 0 -1.97-4.608l-11.952-9.723 14.987-3.572a5.385 5.385 0 0 0 3.775-3.3l5.554-14.372 8.028 13.15a5.387 5.387 0 0 0 4.3 2.571l15.385.841z" fill="url(#linear-gradient-18)"/><path d="m299.974 44.187-22.428-6.972-6.972-22.429a5.385 5.385 0 0 0 -9.538-1.51l-13.561 19.176-23.485-.3a5.328 5.328 0 0 0 -4.866 2.939 5.385 5.385 0 0 0 .482 5.665l14.047 18.823-7.543 22.243a5.385 5.385 0 0 0 6.828 6.829l22.243-7.543 18.824 14.047a5.384 5.384 0 0 0 8.6-4.385l-.3-23.484 19.176-13.561a5.384 5.384 0 0 0 -1.511-9.538zm-26.195 15.941a5.388 5.388 0 0 0 -2.275 4.465l.196 15.407-12.349-9.215a5.385 5.385 0 0 0 -4.951-.785l-14.592 4.948 4.949-14.591a5.389 5.389 0 0 0 -.784-4.95l-9.215-12.348 15.406.2a5.336 5.336 0 0 0 4.465-2.275l8.9-12.58 4.571 14.711a5.384 5.384 0 0 0 3.543 3.543l14.713 4.573z" fill="url(#linear-gradient-19)"/><path d="m214.57 471.02 22.962 4.934 8.953 21.714a5.386 5.386 0 0 0 4.616 3.32q.182.012.363.012a5.385 5.385 0 0 0 4.656-2.682l11.789-20.313 23.417-1.805a5.385 5.385 0 0 0 3.6-8.963l-15.677-17.489 5.52-22.829a5.384 5.384 0 0 0 -7.412-6.189l-21.478 9.5-20.006-12.3a5.384 5.384 0 0 0 -8.177 5.138l2.4 23.363-17.884 15.225a5.384 5.384 0 0 0 2.359 9.364zm24.661-18.22a5.383 5.383 0 0 0 1.866-4.651l-1.576-15.326 13.123 8.071a5.389 5.389 0 0 0 5 .338l14.09-6.236-3.621 14.977a5.382 5.382 0 0 0 1.224 4.859l10.284 11.468-15.362 1.184a5.382 5.382 0 0 0 -4.243 2.666l-7.734 13.326-5.873-14.244a5.383 5.383 0 0 0 -3.847-3.212l-15.062-3.236z" fill="url(#linear-gradient-20)"/><path d="m436.763 89.337a5.384 5.384 0 0 0 -5.263-2.137l-23.148 3.97-16.398-16.823a5.384 5.384 0 0 0 -9.184 2.984l-3.377 23.243-21.061 10.394a5.384 5.384 0 0 0 0 9.657l21.061 10.4 3.377 23.242a5.384 5.384 0 0 0 9.184 2.984l16.395-16.818 23.151 3.967a5.385 5.385 0 0 0 5.676-7.813l-10.932-20.787 10.929-20.788a5.384 5.384 0 0 0 -.41-5.675zm-21.363 28.963 7.169 13.638-15.185-2.6a5.383 5.383 0 0 0 -4.766 1.548l-10.755 11.034-2.215-15.248a5.388 5.388 0 0 0 -2.946-4.054l-13.821-6.818 13.816-6.818a5.386 5.386 0 0 0 2.946-4.055l2.215-15.247 10.755 11.033a5.386 5.386 0 0 0 4.766 1.549l15.185-2.6-7.164 13.629a5.382 5.382 0 0 0 0 5.009z" fill="url(#linear-gradient-21)"/><path d="m79.607 425.034a5.387 5.387 0 0 0 5.437 1.661l22.7-6.027 17.835 15.282a5.385 5.385 0 0 0 8.88-3.8l1.282-23.452 20.045-12.239a5.384 5.384 0 0 0 -.865-9.618l-21.908-8.466-5.446-22.847a5.384 5.384 0 0 0 -9.415-2.149l-14.82 18.22-23.412-1.876a5.384 5.384 0 0 0 -4.953 8.289l12.747 19.726-9.023 21.685a5.386 5.386 0 0 0 .916 5.611zm25.684-42.47a5.377 5.377 0 0 0 4.609-1.964l9.723-11.952 3.572 14.987a5.387 5.387 0 0 0 3.3 3.775l14.372 5.553-13.15 8.029a5.387 5.387 0 0 0 -2.571 4.3l-.841 15.385-11.7-10.026a5.39 5.39 0 0 0 -4.886-1.115l-14.891 3.954 5.919-14.225a5.384 5.384 0 0 0 -.449-4.991l-8.362-12.94z" fill="url(#linear-gradient-22)"/><path d="m498.724 260.471-19.176-13.561.3-23.485a5.384 5.384 0 0 0 -8.6-4.384l-18.823 14.047-22.243-7.543a5.385 5.385 0 0 0 -6.829 6.828l7.543 22.243-14.05 18.824a5.384 5.384 0 0 0 4.384 8.6l23.485-.3 13.56 19.175a5.384 5.384 0 0 0 9.538-1.51l6.972-22.428 22.429-6.972a5.384 5.384 0 0 0 1.51-9.538zm-29.838 7.067a5.384 5.384 0 0 0 -3.544 3.543l-4.573 14.713-8.9-12.579a5.384 5.384 0 0 0 -4.4-2.276h-.068l-15.407.2 9.215-12.349a5.384 5.384 0 0 0 .784-4.949l-4.948-14.592 14.592 4.948a5.384 5.384 0 0 0 4.949-.784l12.348-9.214-.2 15.406a5.383 5.383 0 0 0 2.275 4.465l12.58 8.9z" fill="url(#linear-gradient-23)"/><path d="m35.8 290.761a5.385 5.385 0 0 0 8.963 3.6l17.489-15.681 22.829 5.52a5.384 5.384 0 0 0 6.19-7.412l-9.5-21.478 12.299-20.01a5.385 5.385 0 0 0 -5.138-8.177l-23.363 2.4-15.224-17.877a5.384 5.384 0 0 0 -9.364 2.354l-4.935 22.963-21.714 8.957a5.384 5.384 0 0 0 -.65 9.635l20.318 11.789zm6.967-44.917a5.383 5.383 0 0 0 3.212-3.844l3.238-15.064 9.983 11.73a5.374 5.374 0 0 0 4.651 1.865l15.326-1.576-8.067 13.124a5.384 5.384 0 0 0 -.338 5l6.236 14.09-14.976-3.621a5.378 5.378 0 0 0 -4.86 1.224l-11.472 10.284-1.184-15.363a5.385 5.385 0 0 0 -2.666-4.243l-13.326-7.733z" fill="url(#linear-gradient-24)"/><path d="m288.344 256.458a34.461 34.461 0 1 0 -34.461 34.461 34.5 34.5 0 0 0 34.461-34.461zm-34.461 23.692a23.692 23.692 0 1 1 23.692-23.692 23.719 23.719 0 0 1 -23.692 23.692z" fill="url(#linear-gradient-25)"/><path d="m268.273 299.689a5.385 5.385 0 0 0 -6.354-4.2 40.116 40.116 0 0 1 -8.036.81 5.385 5.385 0 0 0 0 10.769 50.992 50.992 0 0 0 10.195-1.028 5.385 5.385 0 0 0 4.195-6.351z" fill="url(#linear-gradient-26)"/><path d="m304.5 256.458a50.977 50.977 0 0 0 -1.128-10.674 5.385 5.385 0 0 0 -10.53 2.262 40.1 40.1 0 0 1 .889 8.412 5.385 5.385 0 1 0 10.769 0z" fill="url(#linear-gradient-27)"/><path d="m237.638 213.889a5.375 5.375 0 0 0 6.53 3.915 40.051 40.051 0 0 1 9.715-1.191 5.385 5.385 0 0 0 0-10.769 50.82 50.82 0 0 0 -12.33 1.514 5.383 5.383 0 0 0 -3.915 6.531z" fill="url(#linear-gradient-28)"/><path d="m210.027 268.809a5.384 5.384 0 0 0 4.49-6.15 40.307 40.307 0 0 1 -.479-6.2 5.385 5.385 0 0 0 -10.769 0 51.283 51.283 0 0 0 .607 7.861 5.381 5.381 0 0 0 6.151 4.49z" fill="url(#linear-gradient-29)"/></svg>