<svg id="Layer_1" enable-background="new 0 0 510.024 510.024" height="512" viewBox="0 0 510.024 510.024" width="512" xmlns="http://www.w3.org/2000/svg"><path d="m312.711 122.689c-2.571 0-5.18-.621-7.6-1.931-33.711-18.238-66.486-18.238-100.197 0-7.772 4.204-17.481 1.313-21.686-6.459-4.205-7.771-1.313-17.481 6.459-21.686 43.346-23.451 87.305-23.451 130.65 0 14.583 7.888 8.898 30.076-7.626 30.076z" fill="#80b9ed"/><g fill="#777"><path d="m435.854 40.679c-32.434-2.558-65.331-2.793-97.773-.703-49.058 3.162-84.161 48.872-74.097 97.076l11.81 56.559c7.278 34.855 35.975 60.524 71.406 63.872 27.275 2.577 55.577 2.667 84.119.271 39.511-3.318 70.548-34.367 73.8-73.826l4.629-56.155c3.644-44.239-29.156-83.568-73.894-87.094z"/><path d="m171.945 39.976c-32.44-2.09-65.336-1.855-97.773.703-44.162 3.48-77.585 42.277-73.893 87.093l4.629 56.154c3.252 39.46 34.289 70.509 73.8 73.827 28.526 2.395 56.829 2.309 84.119-.271 35.432-3.348 64.128-29.017 71.406-63.872l11.81-56.559c10.088-48.316-25.143-93.919-74.098-97.075z"/><path d="m463.436 308.961c-40.223-24.948-73.698 23.245-46.866 51.28.372.558.632 1.104.768 2.034-1.896 1.232-3.09 1.706-3.655 1.883-9.879-5.484-22.119-38.203-26.608-48.611-22.397-51.783-88.145-68.178-132.458-31.713-44.574-36.017-110.198-19.179-132.164 32.859-4.479 10.606-16.406 43.312-26.188 48.816-.564-.171-1.762-.633-3.675-1.854.221-1.613.963-2.244.704-1.985 26.688-28.395-7.266-76.183-47.235-50.938-39.537 24.958-44.955 97.829 7.877 135.916 23.799 17.158 56.489 24.81 82.747 24.81 44.7-.002 88.845-21.106 118.523-53.099 35.157 37.258 87.075 56.619 133.425 51.188 122.834-14.381 126.054-128.924 74.805-160.586z"/></g><path d="m175.914 132.467c23.767-10.71 47.697-17.454 71.302-21.127-4.472-38.809-36.18-68.844-75.271-71.364-32.44-2.09-65.336-1.855-97.773.703-44.162 3.48-77.585 42.277-73.893 87.093l2.775 33.665c54.115 3.506 114.328-2.593 172.86-28.97z" fill="#848484"/><path d="m435.854 40.679c-32.434-2.558-65.331-2.793-97.773-.703-38.438 2.478-69.681 31.523-75.01 69.343 103.76-10.343 198.972 35.736 243.121 61.596l3.556-43.143c3.644-44.238-29.156-83.567-73.894-87.093z" fill="#848484"/><path d="m463.436 308.961c-40.223-24.948-73.698 23.245-46.866 51.28.372.558.632 1.104.768 2.034-1.896 1.232-3.09 1.706-3.655 1.883-9.879-5.484-22.119-38.203-26.608-48.611-22.397-51.783-88.145-68.178-132.458-31.713-44.574-36.017-110.198-19.179-132.164 32.859-4.479 10.606-16.406 43.312-26.188 48.816-.564-.171-1.762-.633-3.675-1.854.221-1.613.963-2.244.704-1.985 26.688-28.395-7.266-76.183-47.235-50.938-22.934 14.478-34.611 45.315-29.513 76.47 33.754 15.338 75.778 18.85 125.812-5.339 149.033-72.049 208.251-45.863 252.665-14.049 18.997 13.608 59.351 7.491 99.316-3.966-2-23.197-13.156-43.922-30.903-54.887z" fill="#848484"/><path d="m435.854 40.679c-32.434-2.558-65.331-2.793-97.773-.703-25.517 1.645-48.832 15.177-62.827 36.755-13.488-2.242-26.993-2.242-40.48 0-13.969-21.539-37.263-35.107-62.828-36.755-32.44-2.09-65.336-1.855-97.773.703-44.162 3.48-77.585 42.277-73.893 87.093l4.629 56.154c3.252 39.46 34.289 70.509 73.8 73.827 28.526 2.395 56.829 2.309 84.119-.271 35.432-3.348 64.128-29.017 71.406-63.872 11.727-56.164 15.691-66.376 12.44-86.129 5.562-.51 11.119-.51 16.68 0-3.248 19.736.679 29.803 12.44 86.129 7.278 34.855 35.975 60.524 71.406 63.872 27.275 2.577 55.577 2.667 84.119.271 39.511-3.318 70.548-34.367 73.8-73.826l4.629-56.155c3.644-44.238-29.156-83.567-73.894-87.093zm-221.136 89.832-11.81 56.559c-4.394 21.041-21.711 36.535-43.092 38.556-25.382 2.398-51.769 2.48-78.432.239-23.872-2.005-42.623-20.747-44.585-44.566l-4.629-56.155c-2.212-26.854 17.715-50.452 44.516-52.565 30.923-2.438 62.279-2.663 93.201-.67 29.709 1.916 50.902 29.526 44.831 58.602zm263.137-5.368-4.629 56.156c-1.962 23.818-20.713 42.561-44.585 44.565-26.663 2.239-53.051 2.159-78.432-.239-21.381-2.021-38.698-17.515-43.092-38.556l-11.81-56.559c-6.087-29.153 15.191-56.69 44.83-58.602 29.94-1.929 61.324-1.843 93.201.67 26.752 2.11 46.734 25.664 44.517 52.565z"/><path d="m463.436 308.961c-40.223-24.948-73.698 23.245-46.866 51.28.372.558.632 1.104.768 2.034-1.896 1.232-3.09 1.706-3.655 1.883-9.879-5.484-22.119-38.203-26.608-48.611-22.397-51.783-88.145-68.178-132.458-31.713-44.574-36.017-110.198-19.179-132.164 32.859-4.479 10.606-16.406 43.312-26.188 48.816-.564-.171-1.762-.633-3.675-1.854.221-1.613.963-2.244.704-1.985 26.688-28.395-7.266-76.183-47.235-50.938-39.537 24.958-44.955 97.829 7.877 135.916 23.799 17.158 56.489 24.81 82.747 24.81 44.7-.002 88.845-21.106 118.523-53.099 35.157 37.258 87.075 56.619 133.425 51.188 122.834-14.381 126.054-128.924 74.805-160.586zm-78.527 128.802c-42.567 4.99-90.376-17.286-116.836-53.937-6.398-8.863-19.672-8.847-26.023.109-26.111 36.815-73.688 59.581-116.378 54.934-91.498-9.915-88.63-84.603-62.529-101.08 1.116-.705 3.851-2.168 5.049-2.168 2.135 0 3.258 2.568 1.784 4.135-12.418 13.199-14.407 38.224 5.377 50.859 10.541 6.738 20.751 8.599 30.36 5.527 24.247-7.78 36.364-43.652 46.22-67.004 15.582-36.91 64.825-44.07 90.372-12.653 6.436 7.917 18.555 7.86 24.92-.113 25.352-31.767 74.663-24.689 90.473 11.863 10.048 23.307 22.489 59.062 46.834 66.648 9.604 2.975 19.79 1.026 30.271-5.795 19.176-12.479 17.888-37.387 4.946-50.905-1.75-1.832.105-4.81 2.518-4.034 29.617 9.433 39.383 92.287-57.358 103.614z"/></svg>